<svg width="35" height="36" viewBox="0 0 35 36" fill="none" xmlns="http://www.w3.org/2000/svg">
<mask style="mask-type:luminance" maskUnits="userSpaceOnUse" x="0" y="0" width="35" height="36">
<path d="M34.8926 0.82843H0.0478516V35.5152H34.8926V0.82843Z" fill="white"/>
</mask>
<path d="M33.6607 18.7807H17.8118C17.4806 18.7807 17.2114 19.0642 17.2114 19.4001C17.2114 19.7361 17.4806 20.009 17.8118 20.009H33.5779C32.6669 28.0613 25.845 34.3498 17.5323 34.3813C8.57788 34.4128 1.29009 27.1794 1.25904 18.2348C1.22798 9.29015 8.464 2.01475 17.4185 1.98326C25.7829 1.95176 32.6773 8.2508 33.5779 16.3661H17.8015C17.4702 16.3661 17.2011 16.639 17.2011 16.975C17.2011 17.3109 17.4702 17.5734 17.8015 17.5734H33.6607C33.6607 17.7624 33.6918 17.9408 33.6918 18.1298C33.6918 18.3503 33.6711 18.5707 33.6607 18.8017M33.0292 0.82843H1.91121C0.876012 0.82843 0.0478516 1.6788 0.0478516 2.71814V33.6255C0.0478516 34.6753 0.876012 35.5152 1.91121 35.5152H33.0292C34.0541 35.5152 34.8926 34.6753 34.8926 33.6255V2.71814C34.8926 1.6788 34.0644 0.82843 33.0292 0.82843Z" fill="#005760"/>
</svg>
