<svg xmlns="http://www.w3.org/2000/svg" width="200" height="23" viewBox="0 0 200 23">
    <g fill="none" fill-rule="evenodd">
        <g fill="#003D5C">
            <path d="M124.883 34.433c-1.095-2.105-3.285-3.377-5.674-3.279-3.883.098-6.969 3.279-6.82 7.095.1 3.67 3.086 6.607 6.82 6.705 3.135.097 5.823-2.203 6.122-5.285h-6.57v-2.105h8.959v.832c0 4.894-3.434 8.662-8.561 8.662-5.077 0-9.159-4.013-9.159-9.004S114.131 29 119.209 29c3.185-.049 6.172 1.664 7.715 4.404l-2.041 1.028zm17.82.244v12.136h-2.19v-1.957c-.996 1.419-2.688 2.25-4.43 2.25-3.584-.097-6.372-3.033-6.272-6.508.099-3.376 2.837-6.067 6.272-6.165 1.742-.05 3.384.734 4.43 2.104v-1.86h2.19zm-6.371 1.664c-2.44-.098-4.53 1.81-4.58 4.257-.05 2.447 1.842 4.453 4.331 4.502 2.439.098 4.529-1.81 4.579-4.257v-.147c.1-2.349-1.792-4.306-4.181-4.355h-.149zM146.287 52V34.677h2.19v1.909c1.045-1.42 2.688-2.202 4.43-2.202 3.584.098 6.371 3.034 6.272 6.508-.1 3.376-2.838 6.068-6.272 6.166-1.742.049-3.385-.734-4.43-2.104V52h-2.19zm6.371-15.659c-2.439-.098-4.53 1.81-4.579 4.257-.1 2.398 1.841 4.453 4.33 4.502 2.439.098 4.53-1.81 4.58-4.257v-.147c.099-2.349-1.792-4.306-4.182-4.355h-.149zm15.082-7.046v17.518h-2.29V29.295h2.29zm6.073 17.518h-2.24V34.677h2.24v1.762c.896-1.321 2.389-2.104 3.982-2.006 3.186 0 5.077 2.055 5.077 5.285v7.144h-2.19v-6.949c0-2.153-1.145-3.572-3.285-3.572-2.141 0-3.534 1.615-3.534 4.062l-.05 6.41zm15.082-15.806v3.67h3.534v1.909h-3.534v6.41c-.149.979.498 1.909 1.493 2.055.199.05.398.05.598 0 .497 0 .995-.146 1.443-.391v2.006c-.597.294-1.244.392-1.941.392-1.941.147-3.634-1.273-3.783-3.132v-7.34h-1.941v-1.909h1.941v-3.67h2.19zm4.928 9.738c-.15-3.376 2.538-6.214 5.973-6.361h.299c3.384 0 6.122 2.74 6.072 6.068v.195c0 .49-.05.783-.05.783h-10.104c.199 2.153 2.041 3.768 4.231 3.768 1.493.05 2.937-.783 3.634-2.055l1.791.88c-1.095 1.958-3.185 3.133-5.475 3.084-3.434.098-6.272-2.545-6.421-5.921 0-.147 0-.294.05-.44zm10.055-1.125c-.2-1.958-1.892-3.426-3.883-3.377-1.941.05-3.584 1.468-3.932 3.377h7.815zm11.398-2.985c-.199-.05-.398-.05-.597-.05-2.34 0-3.733 1.811-3.733 4.405v5.774h-2.19V34.677h2.19v2.153c.697-1.468 2.19-2.397 3.832-2.348.2 0 .349 0 .548.049l-.05 2.104zm4.43 10.178h-2.19V34.677h2.24v1.762c.896-1.321 2.389-2.104 3.982-2.006 3.186 0 5.077 2.055 5.077 5.285v7.144h-2.24v-6.949c0-2.153-1.144-3.572-3.285-3.572-2.14 0-3.534 1.615-3.534 4.062v6.41h-.05zm24.54-12.136v12.136h-2.19v-1.957c-.996 1.419-2.688 2.25-4.43 2.25-3.584-.097-6.372-3.033-6.272-6.508.099-3.376 2.837-6.067 6.272-6.165 1.742-.05 3.384.734 4.43 2.104v-1.86h2.19zm-6.371 1.664c-2.439-.098-4.53 1.81-4.58 4.257-.099 2.398 1.842 4.453 4.331 4.502 2.439.098 4.529-1.81 4.579-4.257v-.147c.1-2.349-1.792-4.306-4.181-4.355h-.149zm12.692-5.334v3.67h3.535v1.909h-3.535v6.41c-.149.979.498 1.909 1.494 2.055.199.05.398.05.597 0 .498 0 .996-.146 1.444-.391v2.006c-.598.294-1.295.392-1.942.392-1.941.147-3.633-1.273-3.783-3.132v-7.34h-1.941v-1.909h1.941v-3.67h2.19zm7.168 1.517c-.796 0-1.493-.685-1.443-1.468 0-.783.697-1.468 1.493-1.419.796 0 1.443.636 1.443 1.468 0 .734-.647 1.42-1.493 1.42zm1.145 2.153v12.136h-2.24V34.677h2.24zm15.829 6.068c.05 3.572-2.837 6.508-6.471 6.557-3.634.05-6.62-2.789-6.67-6.361-.05-3.572 2.837-6.508 6.471-6.557h.099c3.534-.098 6.471 2.691 6.521 6.165 0 .05 0 .098.05.196zm-10.901 0c.099 2.349 2.09 4.16 4.43 4.11 2.389-.097 4.231-2.055 4.181-4.355-.099-2.3-1.991-4.11-4.33-4.11-2.39 0-4.331 1.908-4.331 4.257.05 0 .05.05.05.098zm15.829 6.068h-2.24V34.677h2.24v1.762c.896-1.321 2.389-2.104 3.982-2.006 3.185 0 5.077 2.055 5.077 5.285v7.144h-2.24v-6.949c0-2.153-1.145-3.572-3.285-3.572-2.141 0-3.534 1.615-3.534 4.062v6.41zm24.539-12.136v12.136h-2.19v-1.957c-.995 1.419-2.688 2.25-4.43 2.25-3.584-.097-6.371-3.033-6.272-6.508.1-3.376 2.837-6.067 6.272-6.165 1.742-.05 3.385.734 4.43 2.104v-1.86h2.19zm-6.371 1.664c-2.439-.098-4.53 1.81-4.58 4.257-.099 2.398 1.842 4.453 4.331 4.502 2.439.098 4.53-1.81 4.579-4.257v-.147c.1-2.349-1.792-4.306-4.181-4.355h-.149zM310 29.295v17.518h-2.24V29.295H310z" transform="translate(-110 -29)"/>
        </g>
    </g>
</svg>
