<svg xmlns="http://www.w3.org/2000/svg" viewBox="0 0 22 22">
    <path d="M20.265 21c.458 0 .735-.348.735-.74a.674.674 0 00-.213-.495l-5.892-5.85c1.182-1.373 1.907-3.147 1.907-5.08C16.802 4.527 13.242 1 8.896 1 4.559 1 1 4.527 1 8.835c0 4.298 3.559 7.825 7.896 7.825a7.891 7.891 0 004.954-1.742l5.914 5.87a.723.723 0 00.5.212zm-11.37-5.132c-3.889 0-7.096-3.178-7.096-7.033 0-3.865 3.207-7.032 7.097-7.032 3.9 0 7.096 3.167 7.096 7.032 0 3.855-3.197 7.033-7.096 7.033zm2.867-6.663c.213 0 .383-.17.383-.37a.38.38 0 00-.383-.38H6.029a.38.38 0 00-.383.38c0 .2.17.37.383.37h5.733z" fill="#003D5C" fill-rule="nonzero" stroke="#003D5C" stroke-width=".2"/>
</svg>
