<?xml version="1.0" standalone="no"?>
<!DOCTYPE svg PUBLIC "-//W3C//DTD SVG 20010904//EN"
 "http://www.w3.org/TR/2001/REC-SVG-20010904/DTD/svg10.dtd">
<svg version="1.0" xmlns="http://www.w3.org/2000/svg"
 width="544.000000pt" height="544.000000pt" viewBox="0 0 544.000000 544.000000"
 preserveAspectRatio="xMidYMid meet">
<metadata>
Created by potrace 1.11, written by Peter Selinger 2001-2013
</metadata>
<g transform="translate(0.000000,544.000000) scale(0.100000,-0.100000)"
fill="#000000" stroke="none">
<path d="M173 5364 c-64 -31 -114 -80 -145 -142 l-23 -47 -2 -2448 -3 -2448
25 -49 c30 -58 81 -120 101 -120 8 0 14 -3 14 -8 0 -7 35 -24 80 -38 14 -4
1132 -8 2485 -9 2635 -1 2527 -3 2600 48 51 35 91 84 114 138 l21 52 -2 2441
-3 2441 -23 45 c-40 77 -104 134 -182 160 -8 2 -1138 6 -2510 7 l-2495 2 -52
-25z m2792 -159 c183 -21 214 -26 385 -67 90 -21 264 -78 340 -110 107 -47
355 -173 370 -188 3 -3 30 -21 60 -40 30 -19 57 -37 60 -40 3 -3 28 -22 55
-41 28 -18 52 -36 55 -39 3 -3 34 -30 70 -59 94 -79 330 -320 330 -337 0 -3
11 -17 25 -32 78 -83 276 -416 329 -552 10 -25 24 -58 31 -75 60 -133 155
-502 155 -601 l0 -22 -1239 0 c-1294 0 -1266 1 -1298 -41 -26 -35 -5 -119 35
-137 9 -4 577 -9 1262 -10 685 -1 1248 -2 1252 -3 12 -2 7 -181 -6 -182 -6 -1
-569 -2 -1251 -2 -1180 -2 -1241 -3 -1267 -20 -60 -41 -41 -148 29 -161 24 -5
84 -9 98 -6 25 4 166 0 175 -5 5 -3 11 -1 15 4 3 6 16 7 28 3 12 -4 45 -5 72
-2 28 3 67 2 87 -1 21 -3 40 -4 43 -1 2 3 55 4 117 3 62 -1 118 -2 123 -2 178
3 275 2 283 -3 6 -3 13 -2 16 3 3 4 20 6 38 4 18 -3 38 -5 43 -5 6 0 42 1 82
2 40 1 76 -1 82 -4 5 -4 12 -3 15 2 2 4 33 6 68 4 74 -4 64 -4 153 -2 39 1 75
1 80 0 6 -1 15 -2 20 -1 14 3 348 3 360 1 6 -1 15 -2 20 0 23 4 166 0 175 -5
5 -3 11 -1 15 4 3 6 15 7 26 3 11 -5 44 -5 73 -2 30 3 65 3 80 -1 14 -4 28 -4
31 0 2 4 18 6 36 3 l31 -5 -6 -51 c-3 -28 -10 -76 -16 -106 -6 -30 -14 -66
-16 -80 -15 -75 -52 -207 -64 -231 -6 -10 -9 -19 -6 -19 4 0 -28 -89 -67 -185
-24 -60 -131 -271 -165 -325 -120 -192 -185 -276 -332 -434 -36 -38 -78 -81
-94 -95 -17 -14 -37 -33 -45 -42 -45 -47 -294 -238 -324 -248 -7 -2 -14 -7
-17 -11 -3 -3 -25 -17 -50 -31 -25 -13 -47 -27 -50 -30 -8 -10 -241 -123 -300
-146 -186 -73 -444 -143 -575 -158 -16 -1 -55 -6 -85 -9 -30 -4 -73 -9 -95
-11 -64 -7 -333 -7 -410 0 -156 15 -216 24 -340 51 -60 13 -118 26 -129 29
-30 7 -159 46 -181 55 -123 48 -177 72 -280 122 -127 63 -238 127 -243 140 -2
4 -8 8 -14 8 -11 0 -213 149 -272 201 -80 70 -204 197 -265 269 -83 98 -90
107 -131 165 -19 28 -38 51 -42 53 -4 2 -8 8 -8 13 0 4 -20 39 -43 76 -185
288 -313 654 -363 1038 -9 66 -9 468 -1 525 4 25 9 61 11 80 2 19 7 49 10 65
3 17 8 46 11 65 33 200 146 515 262 725 51 92 181 295 207 321 6 6 22 26 36
44 61 80 233 261 316 330 98 83 266 210 278 210 2 0 28 16 58 36 48 32 342
183 354 182 6 0 63 21 84 31 21 11 249 79 282 85 15 2 31 7 36 9 4 3 26 8 48
11 22 4 51 9 64 11 57 12 170 26 245 31 44 4 81 7 82 8 5 5 325 -3 378 -9z"/>
</g>
</svg>
