<svg xmlns="http://www.w3.org/2000/svg" width="20" height="24" viewBox="0 0 20 24">
    <g fill="none" fill-rule="evenodd">
        <g fill="#003D5C" fill-rule="nonzero" stroke="#003D5C" stroke-width=".2">
            <g>
                <path d="M1341.01 40.418c.096 0 .192-.032.277-.126l3.916-3.876c.074-.074.117-.147.117-.253 0-.2-.16-.358-.35-.358-.096 0-.213.053-.287.127l-2.06 2.064-1.252 1.263.022-1.463V25.39c0-.211-.17-.39-.382-.39-.223 0-.393.179-.393.39v12.406l.021 1.474-1.263-1.274-2.059-2.064c-.074-.074-.19-.127-.286-.127-.202 0-.35.158-.35.358 0 .106.042.18.116.253l3.927 3.876c.085.094.18.126.287.126zm6.124 6.582c1.879 0 2.866-.99 2.866-2.833v-11.1c0-1.843-.987-2.833-2.866-2.833h-3.11v.78h3.09c1.326 0 2.09.716 2.09 2.095v11.016c0 1.38-.764 2.096-2.09 2.096h-12.227c-1.38 0-2.102-.716-2.102-2.096V33.109c0-1.38.722-2.096 2.102-2.096h3.11v-.779h-3.131c-1.879 0-2.866.969-2.866 2.833v11.1c0 1.864.987 2.833 2.866 2.833h12.268z" transform="translate(-1331 -24)"/>
            </g>
        </g>
    </g>
</svg>